<?xml version="1.0" encoding="UTF-8"?>
<svg id="Layer_1" data-name="Layer 1" xmlns="http://www.w3.org/2000/svg" viewBox="25.72 388.77 907.66 182.55">
  <defs>
    <style>
      /* Added class for white text */
      .white-fill {
        fill: #ffffff;
        stroke-width: 0px;
      }
    </style>
  </defs>
  
  <path class="white-fill" d="M157,451.36h-73.58c-1.76,0-3.18,1.43-3.18,3.19v4.48c0,1.76,1.43,3.19,3.18,3.19h73.58c1.76,0,3.18-1.43,3.18-3.19v-4.48c0-1.76-1.43-3.19-3.18-3.19Z"/>
  <path class="white-fill" d="M66.38,451.36H28.9c-1.76,0-3.18,1.43-3.18,3.19v4.48c0,1.76,1.43,3.19,3.18,3.19h37.48c1.76,0,3.18-1.43,3.18-3.19v-4.48c0-1.76-1.43-3.19-3.18-3.19Z"/>
  <path class="white-fill" d="M226.96,451.36h-43.7c-1.76,0-3.18,1.43-3.18,3.19v4.48c0,1.76,1.43,3.19,3.18,3.19h43.7c1.76,0,3.18-1.43,3.18-3.19v-4.48c0-1.76-1.42-3.19-3.18-3.19Z"/>
  <path class="white-fill" d="M226.96,435.79h-36.52c-1.76,0-3.18,1.43-3.18,3.19v4.48c0,1.76,1.43,3.19,3.18,3.19h36.52c1.76,0,3.18-1.43,3.18-3.19v-4.48c0-1.76-1.42-3.19-3.18-3.19Z"/>
  <path class="white-fill" d="M266.59,435.79h-27.64c-1.76,0-3.18,1.43-3.18,3.19v4.48c0,1.76,1.42,3.19,3.18,3.19h27.64c1.76,0,3.18-1.43,3.18-3.19v-4.48c0-1.76-1.43-3.19-3.18-3.19Z"/>
  <path class="white-fill" d="M256.82,419.9h-32.34c-1.76,0-3.18,1.43-3.18,3.19v4.48c0,1.76,1.42,3.19,3.18,3.19h32.34c1.76,0,3.18-1.43,3.18-3.19v-4.48c0-1.76-1.42-3.19-3.18-3.19Z"/>
  <path class="white-fill" d="M241.76,404.33h-5.02c-1.76,0-3.18,1.43-3.18,3.19v4.48c0,1.76,1.43,3.19,3.18,3.19h5.02c1.76,0,3.18-1.43,3.18-3.19v-4.48c0-1.76-1.43-3.19-3.18-3.19Z"/>
  <path class="white-fill" d="M134.62,529h-13.34c-1.76,0-3.18,1.43-3.18,3.19v4.83c0,1.76,1.42,3.19,3.18,3.19h13.34c1.76,0,3.18-1.43,3.18-3.19v-4.83c0-1.76-1.42-3.19-3.18-3.19Z"/>
  <path class="white-fill" d="M162.06,529h-6.55c-1.76,0-3.18,1.43-3.18,3.19v4.83c0,1.76,1.42,3.19,3.18,3.19h6.55c1.76,0,3.18-1.43,3.18-3.19v-4.83c0-1.76-1.43-3.19-3.18-3.19Z"/>
  <path class="white-fill" d="M202.85,529.31h-28.46c-1.76,0-3.18,1.43-3.18,3.19v4.21c0,1.76,1.43,3.19,3.18,3.19h28.46c1.76,0,3.18-1.43,3.18-3.19v-4.21c0-1.76-1.43-3.19-3.18-3.19Z"/>
  <path class="white-fill" d="M199.93,513.44h-8.1c-1.76,0-3.18,1.43-3.18,3.19v4.83c0,1.76,1.43,3.19,3.18,3.19h8.1c1.76,0,3.18-1.43,3.18-3.19v-4.83c0-1.76-1.43-3.19-3.18-3.19Z"/>
  <path class="white-fill" d="M99.14,529h-5.02c-1.76,0-3.18,1.43-3.18,3.19v4.83c0,1.76,1.43,3.19,3.18,3.19h5.02c1.76,0,3.18-1.43,3.18-3.19v-4.83c0-1.76-1.43-3.19-3.18-3.19Z"/>
  <path class="white-fill" d="M143.51,547.74c0-1.76,1.43-3.19,3.18-3.19h5.02c1.75,0,3.18,1.43,3.18,3.19v4.83c0,1.76-1.43,3.19-3.18,3.19h-5.02c-1.75,0-3.18-1.43-3.18-3.19v-4.83Z"/>
  <path class="white-fill" d="M140.04,560.11h-4.48c-1.76,0-3.18,1.43-3.18,3.19v4.83c0,1.76,1.42,3.19,3.18,3.19h4.48c1.76,0,3.18-1.43,3.18-3.19v-4.83c0-1.76-1.43-3.19-3.18-3.19Z"/>
  <path class="white-fill" d="M186.35,388.77h-7.75c-1.76,0-3.18,1.43-3.18,3.19v4.48c0,1.76,1.42,3.19,3.18,3.19h7.75c1.76,0,3.18-1.43,3.18-3.19v-4.48c0-1.76-1.42-3.19-3.18-3.19Z"/>
  <path class="white-fill" d="M128.04,435.79h-29.74c-1.76,0-3.18,1.43-3.18,3.19v4.48c0,1.76,1.43,3.19,3.18,3.19h29.74c1.76,0,3.18-1.43,3.18-3.19v-4.48c0-1.76-1.43-3.19-3.18-3.19Z"/>
  <path class="white-fill" d="M180.83,404.33h-15.57c-1.76,0-3.18,1.43-3.18,3.19v4.48c0,1.76,1.43,3.19,3.18,3.19h15.57c1.76,0,3.18-1.43,3.18-3.19v-4.48c0-1.76-1.42-3.19-3.18-3.19Z"/>
  <path class="white-fill" d="M180.83,419.9h-29.04c-1.76,0-3.18,1.43-3.18,3.19v4.48c0,1.76,1.42,3.19,3.18,3.19h29.04c1.76,0,3.18-1.43,3.18-3.19v-4.48c0-1.76-1.42-3.19-3.18-3.19Z"/>
  <path class="white-fill" d="M276.2,451.36h-14.29c-1.76,0-3.18,1.43-3.18,3.19v4.48c0,1.76,1.43,3.19,3.18,3.19h14.29c1.76,0,3.18-1.43,3.18-3.19v-4.48c0-1.76-1.43-3.19-3.18-3.19Z"/>
  <path class="white-fill" d="M162.62,466.92h-95.67c-1.76,0-3.18,1.43-3.18,3.19v4.48c0,1.76,1.43,3.19,3.18,3.19h95.67c1.76,0,3.18-1.43,3.18-3.19v-4.48c0-1.76-1.42-3.19-3.18-3.19Z"/>
  <path class="white-fill" d="M193.08,498.05h-33.5c-1.76,0-3.18,1.43-3.18,3.19v4.48c0,1.76,1.43,3.19,3.18,3.19h33.5c1.76,0,3.18-1.43,3.18-3.19v-4.48c0-1.76-1.42-3.19-3.18-3.19Z"/>
  <path class="white-fill" d="M206.69,482.49h-123.27c-1.76,0-3.18,1.43-3.18,3.19v4.48c0,1.76,1.43,3.19,3.18,3.19h123.27c1.76,0,3.18-1.43,3.18-3.19v-4.48c0-1.76-1.43-3.19-3.18-3.19Z"/>
  <path class="white-fill" d="M105.42,498.05h-41.83c-1.76,0-3.18,1.43-3.18,3.19v4.48c0,1.76,1.43,3.19,3.18,3.19h41.83c1.76,0,3.18-1.43,3.18-3.19v-4.48c0-1.76-1.43-3.19-3.18-3.19Z"/>
  <path class="white-fill" d="M117.02,513.44h-9.44c-1.76,0-3.18,1.43-3.18,3.19v4.83c0,1.76,1.42,3.19,3.18,3.19h9.44c1.76,0,3.18-1.43,3.18-3.19v-4.83c0-1.76-1.43-3.19-3.18-3.19Z"/>
  <path class="white-fill" d="M174.03,513.44h-10.66c-1.76,0-3.18,1.43-3.18,3.19v4.83c0,1.76,1.42,3.19,3.18,3.19h10.66c1.76,0,3.18-1.43,3.18-3.19v-4.83c0-1.76-1.42-3.19-3.18-3.19Z"/>
  <path class="white-fill" d="M88.01,513.44h-9.61c-1.76,0-3.18,1.43-3.18,3.19v4.83c0,1.76,1.43,3.19,3.18,3.19h9.61c1.76,0,3.18-1.43,3.18-3.19v-4.83c0-1.76-1.42-3.19-3.18-3.19Z"/>
  <path class="white-fill" d="M218.11,466.92h-34.84c-1.76,0-3.18,1.43-3.18,3.19v4.48c0,1.76,1.43,3.19,3.18,3.19h34.84c1.76,0,3.18-1.43,3.18-3.19v-4.48c0-1.76-1.43-3.19-3.18-3.19Z"/>
  
  <path class="white-fill" d="M907.58,526.04c-19.96,0-25.56-10.65-25.45-19.51.03-2.22,1.45-3.32,3.68-3.32h4c2.3,0,3.29,1.22,3.51,3.52.59,5.49,4.18,8.86,14.12,8.86s14.72-3.64,14.72-9.23c0-4.93-2.8-6.74-9.75-7.93l-11.96-2.05c-10.03-1.72-16.66-7.37-16.66-17.52,0-11.42,8.47-19.78,24.13-19.78s24.66,8.5,24.52,18.43c-.03,2.19-1.49,3.3-3.71,3.3h-4.04c-2.3,0-3.13-1.22-3.45-3.46-.59-4.13-3.96-7.89-13.32-7.89s-12.96,3.93-12.96,9.04c0,4.41,2.55,6.35,8.91,7.48l11.96,2.1c10.36,1.83,17.55,6.9,17.55,17.77,0,10.15-6.12,20.21-25.83,20.21h.02Z"/>
  <path class="white-fill" d="M827.05,520.93c0,2.3-1.24,3.55-3.54,3.55h-4.18c-2.3,0-3.54-1.24-3.54-3.55v-81.59c0-2.3,1.24-3.55,3.54-3.55h4.2c2.3,0,3.54,1.25,3.54,3.55v29.23c3.74-5.85,10.43-9.51,19.01-9.51,16.39,0,28.81,13,28.81,33.48s-12.42,33.48-28.81,33.48c-8.61,0-15.3-3.66-19.05-9.54v4.43h.02ZM863.51,492.56c0-14.77-8.44-22.95-18.49-22.95s-18.6,8.18-18.6,22.95,8.55,22.95,18.6,22.95,18.49-8.18,18.49-22.95Z"/>
  <path class="white-fill" d="M777.22,459.08c17.16,0,24.94,8.14,24.91,21.32l-.05,24.3c0,4.66.16,11.33.77,15.99.3,2.42-.72,3.8-3.16,3.8h-3.77c-2.19,0-3.43-.83-3.66-2.53l-.63-4.79c-3.38,5.57-9.99,8.43-18.1,8.43-14.65,0-23.67-8.65-23.67-20.43,0-10.31,7.25-16.66,19.6-17.54l18.02-1.27c3.27-.22,3.41-.52,3.41-3.57v-2.69c0-7.1-4.29-10.7-13.68-10.7s-13.24,3.52-13.62,8.45c-.16,2.33-.97,3.57-3.32,3.57h-4.32c-2.24,0-3.66-1.13-3.68-3.35-.09-10.37,7.53-18.99,24.94-18.99ZM761.28,505.28c0,6.21,5.06,10.67,13.71,10.67,10.1,0,15.92-6.1,15.92-15.24v-6.01c-1.33.47-2.91.81-4.72.97l-15.78,1.49c-5.76.56-9.14,2.78-9.14,8.12h.01Z"/>
  <path class="white-fill" d="M695.72,524.48c-2.3,0-3.54-1.24-3.54-3.55v-81.59c0-2.3,1.24-3.55,3.54-3.55h4.43c2.3,0,3.54,1.25,3.54,3.55v74.22h39.76c2.3,0,3.54,1.24,3.54,3.55v3.82c0,2.3-1.25,3.55-3.54,3.55h-47.73Z"/>
  <path class="white-fill" d="M653.36,526.04c-18.49,0-30.86-13.2-30.86-33.89s12.19-33.07,29.82-33.07,28.95,12.86,28.95,31.13v1.36c0,2.3-1.24,3.55-3.54,3.55h-43.82c.97,12.72,8.27,20.43,19.46,20.43,7.77,0,12.51-3.05,14.43-8.37.72-2.02,1.76-3.08,3.9-3.08h4.07c2.37,0,3.79,1.33,3.38,3.69-1.86,10.81-11.93,18.26-25.77,18.26h-.02ZM634.34,485.55h35.43c-1.3-10.26-7.61-16.55-17.47-16.55s-16.08,6.15-17.97,16.55h.01Z"/>
  <path class="white-fill" d="M586.67,524.48c-2.05,0-3.32-.88-4.07-2.8l-20.86-55.23c-.66-1.72-.7-2.91-.09-4.13.59-1.16,1.74-1.69,3.75-1.69h3.09c2.05,0,3.35.88,4.07,2.83l16.96,45.68.94,2.94.95-2.94,16.97-45.68c.72-1.94,2.01-2.83,4.07-2.83h3.09c1.99,0,3.16.52,3.75,1.69.61,1.22.58,2.42-.09,4.13l-20.86,55.23c-.75,1.92-2.02,2.8-4.07,2.8h-7.6Z"/>
  <path class="white-fill" d="M542.2,439.34c0-2.3,1.24-3.55,3.54-3.55h4.2c2.3,0,3.54,1.25,3.54,3.55v81.59c0,2.3-1.25,3.55-3.54,3.55h-4.2c-2.3,0-3.54-1.24-3.54-3.55v-81.59Z"/>
  <path class="white-fill" d="M504.11,526.04c-18.49,0-30.86-13.2-30.86-33.89s12.17-33.07,29.81-33.07,28.95,12.86,28.95,31.13v1.36c0,2.3-1.24,3.55-3.54,3.55h-43.82c.97,12.72,8.28,20.43,19.46,20.43,7.78,0,12.51-3.05,14.42-8.37.72-2.02,1.77-3.08,3.9-3.08h4.07c2.38,0,3.79,1.33,3.37,3.69-1.85,10.81-11.92,18.26-25.77,18.26h.01ZM485.1,485.55h35.43c-1.31-10.26-7.61-16.55-17.47-16.55s-16.08,6.15-17.97,16.55h.01Z"/>
  <path class="white-fill" d="M396.99,524.48c-2.08,0-3.38-.95-3.99-2.94l-17.05-55.18c-.56-1.74-.52-2.91.05-4.1.58-1.13,1.72-1.63,3.71-1.63h3.16c2.1,0,3.38.95,3.99,2.96l13.84,45.82.25,1.11.25-1.16,14.23-45.78c.61-1.99,1.91-2.94,3.99-2.94h6.42c2.08,0,3.38.95,3.99,2.94l14.23,45.78.27,1.25.27-1.22,13.84-45.78c.61-2.02,1.88-2.96,3.99-2.96h3.1c1.99,0,3.12.5,3.71,1.63.58,1.2.61,2.35.05,4.1l-17.05,55.18c-.61,1.99-1.91,2.94-3.99,2.94h-7.11c-2.08,0-3.38-.95-3.99-2.94l-14.2-45.78-.36-1.44-.36,1.44-14.18,45.78c-.63,1.99-1.94,2.94-4.02,2.94h-7.06.04Z"/>
  <path class="white-fill" d="M327.11,446.66c-2.3,0-3.54-1.24-3.54-3.55v-3.77c0-2.3,1.24-3.55,3.54-3.55h60.53c2.3,0,3.54,1.25,3.54,3.55v3.77c0,2.3-1.24,3.55-3.54,3.55h-24.5v74.28c0,2.3-1.24,3.55-3.54,3.55h-4.43c-2.3,0-3.54-1.24-3.54-3.55v-74.28h-24.52Z"/>
</svg>