<svg width="740" height="235" viewBox="0 0 740 235" fill="none" xmlns="http://www.w3.org/2000/svg">
<path d="M72.3403 58.9739C72.3403 76.1401 69.8288 89.1658 43.7045 89.1658C17.5803 89.1658 13.7009 76.6324 13.7009 58.9739V17.2334C13.7009 7.83338 9.68694 6.96052 2.78027 6.96052V4.45386H35.7888V6.96052C29.0166 6.96052 24.8682 7.83338 24.8682 17.2334V58.9515C24.8682 71.731 27.8954 84.242 44.1978 84.242C62.2942 84.242 65.1645 73.8572 65.1645 58.9515V17.2334C65.1645 7.83338 61.0385 6.96052 54.2439 6.96052V4.45386H83.2384V6.96052C76.3318 6.96052 72.3178 7.83338 72.3178 17.2334V58.9515L72.3403 58.9739Z" fill="white"/>
<path d="M141.766 85.7638C135.621 88.0243 128.58 89.1434 119.297 89.1434C94.2039 89.1434 82.1396 70.0972 82.1396 43.4191C82.1396 20.2324 89.6518 3.2005 116.538 3.2005C126.584 3.2005 135.128 5.21479 140.644 6.69193L141.766 26.3648H138.626C136.989 19.3372 131.989 8.05717 116.404 8.05717C96.1996 8.05717 94.5627 29.4757 94.5627 42.3895C94.5627 58.5486 98.0833 83.481 125.575 83.481C133.984 83.481 138.514 81.601 141.766 80.3476V85.7415V85.7638Z" fill="white"/>
<path d="M209.195 22.4929C208.052 15.8681 203.029 8.07955 189.597 8.07955C181.188 8.07955 173.765 13.4734 173.765 21.7319C173.765 32.8776 188.722 36.5257 199.643 42.9043C209.554 48.6786 216.192 53.8038 216.192 65.7105C216.192 81.6234 202.378 89.1434 185.179 89.1434C176.635 89.1434 166.746 87.2634 163.585 86.7486L162.71 69.09H165.849C166.858 75.7372 172.756 83.5034 186.188 83.5034C197.243 83.5034 204.397 76.3638 204.397 67.7248C204.397 54.2067 183.565 50.0662 171.881 41.1586C166.365 36.9062 163.719 32.3853 163.719 24.3729C163.719 9.33288 176.142 3.2005 191.951 3.2005C200.383 3.2005 205.765 4.20764 211.415 5.32669L212.29 22.4929H209.151H209.195Z" fill="white"/>
<path d="M267.52 88.0243C266.175 88.36 263.394 89.0314 259.38 89.0314C252.9 89.0314 250.994 85.6967 250.994 80.9071H250.77C247.339 85.9205 242.517 89.0314 234.916 89.0314C227.314 89.0314 221.528 83.6824 221.528 76.431C221.528 60.2719 242.517 60.2719 251.016 59.4886V55.2586C251.016 47.4476 250.904 39.2114 241.531 39.2114C234.602 39.2114 233.705 42.121 233.705 45.6795C233.705 50.2452 230.363 51.4762 228.457 51.4762C225.43 51.4762 223.098 49.4619 223.098 46.4629C223.098 39.2114 233.929 35.541 241.643 35.541C256.936 35.541 259.717 42.8819 259.717 53.2443V80.8848C259.717 84.779 261.062 86.1219 264.516 86.1219C265.525 86.1219 266.534 85.8981 267.52 85.6743V88.0019V88.0243ZM250.994 63.159C245.746 63.271 231.44 64.2781 231.44 74.6405C231.44 80.4371 235.252 84.3314 239.042 84.3314C246.307 84.3314 250.994 77.3038 250.994 69.7391V63.159Z" fill="white"/>
<path d="M269.965 86.01C274.652 86.01 278.441 85.0029 278.441 77.7739V47.3358C278.441 40.6439 273.194 40.3081 269.965 40.0843V38.1819L287.164 35.5186V50.2229H287.388C288.936 46.1048 293.959 35.5186 305.014 35.5186C316.854 35.5186 317.975 41.9643 317.975 52.3491V77.7739C317.975 85.0253 321.765 86.01 326.452 86.01V87.9124H300.776V86.01C305.462 86.01 309.275 85.0029 309.275 77.7739V54.811C309.275 45.2319 309.162 40.8677 301.785 40.8677C295.215 40.8677 287.164 53.4458 287.164 64.0543V77.7739C287.164 85.0253 290.954 86.01 295.663 86.01V87.9124H269.987V86.01H269.965Z" fill="white"/>
<path d="M339.256 85.3834C346.05 85.3834 350.176 84.5105 350.176 75.1105V17.2334C350.176 7.83338 346.028 6.96052 339.256 6.96052V4.45386H368.632C389.464 4.45386 411.552 8.97481 411.552 46.3062C411.552 83.6377 388.343 87.9124 368.632 87.9124H339.256V85.4058V85.3834ZM361.344 72.492C361.344 81.6234 362.353 83.011 368.632 83.011C390.226 83.011 399.129 71.4848 399.129 46.3062C399.129 23.2539 392.491 9.35529 368.632 9.35529C362.353 9.35529 361.344 10.1162 361.344 19.8743V72.492Z" fill="white"/>
<path d="M416.126 86.01C420.835 86.01 424.625 85.0029 424.625 77.7738V47.3357C424.625 40.6438 419.49 40.3081 416.126 40.0843V38.1819L433.325 35.5186V77.7514C433.325 85.0029 437.115 85.9876 441.802 85.9876V87.89H416.104V85.9876L416.126 86.01ZM422.293 18.9119C422.293 15.3533 425.073 12.5557 428.639 12.5557C432.204 12.5557 435.007 15.331 435.007 18.9119C435.007 22.4929 432.227 25.2681 428.639 25.2681C425.051 25.2681 422.293 22.4929 422.293 18.9119Z" fill="white"/>
<path d="M482.255 86.9948C479.564 88.0019 475.775 89.0091 468.958 89.0091C451.646 89.0091 441.937 79.542 441.937 60.8091C441.937 44.5381 448.529 35.5186 464.607 35.5186C474.653 35.5186 483.713 41.0915 483.713 54.0053V56.4672H451.22C451.22 65.8224 455.795 84.891 474.452 84.891C477.008 84.891 480.035 84.5553 482.278 83.4362V86.9948H482.255ZM473.757 52.7743C473.757 46.8658 471.738 39.1891 463.15 39.1891C454.561 39.1891 451.198 48.6562 451.198 52.7743H473.757Z" fill="white"/>
<path d="M519.996 78.9824C525.333 78.9824 537.756 79.2062 537.756 91.5829C537.756 103.96 525.243 111.412 510.398 111.412C499.455 111.412 488.063 107.294 488.063 97.2677C488.063 90.3519 493.199 87.3529 496.787 85.5624C494.88 84.4658 491.988 82.3396 491.988 77.6619C491.988 73.5439 495.553 69.3139 496.787 67.9486C494.208 65.8448 490.306 62.4877 490.306 53.0205C490.306 38.652 500.8 35.5186 511.407 35.5186C516.542 35.5186 519.345 36.4139 522.933 38.2939C524.705 34.0639 527.373 26.3648 534.19 26.3648C537.33 26.3648 539.55 28.3791 539.55 31.7139C539.55 34.7353 537.644 36.7496 534.302 36.7496C531.41 36.7496 530.737 35.1829 529.279 35.1829C526.835 35.1829 525.826 38.4281 525.265 40.1962C526.588 41.651 530.288 45.7691 530.288 53.58C530.288 64.8377 523.27 71.1938 509.86 71.1938C505.397 71.1938 502.146 70.6343 499.702 69.5153C499.007 70.4105 497.683 72.0667 497.683 74.5286C497.683 78.9824 503.267 78.9824 506.833 78.9824H520.018H519.996ZM500.666 86.9053C498.424 88.5839 495.307 90.4639 495.307 95.4772C495.307 102.057 501.204 107.742 510.936 107.742C520.668 107.742 530.49 102.505 530.49 94.4924C530.49 88.8077 525.804 86.9053 520.22 86.9053H500.688H500.666ZM510.376 67.501C519.749 67.501 520.982 60.16 520.982 54.2291C520.982 45.881 518.09 39.1891 510.039 39.1891C501.204 39.1891 499.545 45.6572 499.545 52.1253C499.545 60.5853 502.325 67.501 510.376 67.501Z" fill="white"/>
<path d="M537.845 62.2639C537.845 45.5453 546.882 35.5186 561.166 35.5186C575.45 35.5186 584.51 45.5453 584.51 62.2639C584.51 78.9824 575.473 89.0091 561.166 89.0091C546.859 89.0091 537.845 78.9824 537.845 62.2639ZM561.166 85.3162C572.333 85.3162 574.576 71.5072 574.576 62.2639C574.576 53.0205 572.333 39.1891 561.166 39.1891C549.999 39.1891 547.779 52.9981 547.779 62.2639C547.779 71.5296 549.999 85.3162 561.166 85.3162Z" fill="white"/>
<path d="M482.345 107.115H2.78027V109.935H485.058C484.027 109.062 483.13 108.122 482.345 107.115Z" fill="white"/>
<path d="M583.635 107.115H539.527C538.518 108.145 537.419 109.085 536.208 109.935H583.635V107.115Z" fill="white"/>
<path d="M35.8786 220.945C34.3762 221.706 31.3489 222.444 27.4919 222.444C18.5446 222.444 11.8174 216.804 11.8174 206.42C11.8174 196.035 18.5447 189.791 28.3889 189.791C32.3356 189.791 34.8471 190.641 35.9234 191.201L34.9368 194.535C33.3895 193.774 31.1695 193.215 28.5234 193.215C21.0786 193.215 16.1452 197.96 16.1452 206.285C16.1452 214.029 20.6077 219.02 28.344 219.02C30.8331 219.02 33.3895 218.505 35.0265 217.7L35.8786 220.945Z" fill="white"/>
<path d="M60.7467 210.403C60.7467 218.819 54.9165 222.489 49.4001 222.489C43.2334 222.489 38.4795 217.968 38.4795 210.784C38.4795 203.174 43.4801 198.698 49.7813 198.698C56.0825 198.698 60.7467 203.443 60.7467 210.403ZM42.6728 210.627C42.6728 215.618 45.5431 219.378 49.6019 219.378C53.6607 219.378 56.531 215.663 56.531 210.538C56.531 206.688 54.6025 201.787 49.714 201.787C44.8255 201.787 42.6952 206.308 42.6952 210.627H42.6728Z" fill="white"/>
<path d="M65.7478 205.39C65.7478 203.04 65.7029 201.115 65.5684 199.235H69.2011L69.3805 202.906H69.515C70.7932 200.735 72.9011 198.72 76.6684 198.72C79.7853 198.72 82.1399 200.6 83.1265 203.286H83.2162C83.9114 202.01 84.8084 201.026 85.7502 200.332C87.1181 199.302 88.6205 198.743 90.7956 198.743C93.8005 198.743 98.2853 200.712 98.2853 208.613V221.997H94.2265V209.128C94.2265 204.763 92.6344 202.122 89.2708 202.122C86.9162 202.122 85.0774 203.868 84.3823 205.882C84.2029 206.442 84.0459 207.203 84.0459 207.941V221.997H79.9871V208.367C79.9871 204.741 78.395 202.122 75.2332 202.122C72.6544 202.122 70.7708 204.181 70.098 206.263C69.8738 206.867 69.7617 207.583 69.7617 208.277V221.997H65.7029V205.412L65.7478 205.39Z" fill="white"/>
<path d="M104.788 206.643C104.788 203.734 104.698 201.384 104.608 199.213H108.331L108.51 203.107H108.6C110.304 200.332 112.973 198.698 116.695 198.698C122.211 198.698 126.337 203.353 126.337 210.247C126.337 218.416 121.337 222.467 115.978 222.467C112.973 222.467 110.327 221.146 108.959 218.886H108.869V231.24H104.765V206.621L104.788 206.643ZM108.891 212.709C108.891 213.313 108.981 213.895 109.071 214.41C109.833 217.274 112.322 219.244 115.282 219.244C119.655 219.244 122.211 215.663 122.211 210.448C122.211 205.882 119.812 201.988 115.439 201.988C112.614 201.988 109.968 204.002 109.183 207.113C109.048 207.628 108.891 208.232 108.891 208.814V212.709Z" fill="white"/>
<path d="M150.399 215.775C150.399 218.125 150.444 220.184 150.579 221.974H146.901L146.654 218.259H146.565C145.488 220.094 143.089 222.489 139.03 222.489C135.442 222.489 131.159 220.52 131.159 212.53V199.235H135.308V211.836C135.308 216.155 136.631 219.065 140.398 219.065C143.179 219.065 145.107 217.14 145.869 215.305C146.094 214.7 146.251 213.94 146.251 213.201V199.235H150.399V215.775Z" fill="white"/>
<path d="M162.037 192.7V199.235H167.98V202.391H162.037V214.656C162.037 217.476 162.845 219.065 165.154 219.065C166.231 219.065 167.038 218.93 167.554 218.774L167.733 221.885C166.926 222.22 165.67 222.444 164.056 222.444C162.127 222.444 160.58 221.84 159.571 220.699C158.405 219.468 157.979 217.453 157.979 214.768V202.369H154.458V199.213H157.979V193.752L162.037 192.678V192.7Z" fill="white"/>
<path d="M174.415 211.343C174.505 216.939 178.093 219.244 182.241 219.244C185.201 219.244 186.995 218.729 188.543 218.08L189.238 221.034C187.78 221.683 185.291 222.444 181.658 222.444C174.64 222.444 170.446 217.834 170.446 210.985C170.446 204.137 174.505 198.72 181.143 198.72C188.588 198.72 190.561 205.256 190.561 209.441C190.561 210.291 190.471 210.94 190.426 211.366H174.415V211.343ZM186.569 208.389C186.614 205.748 185.493 201.675 180.829 201.675C176.635 201.675 174.797 205.524 174.483 208.389H186.592H186.569Z" fill="white"/>
<path d="M195.472 206.33C195.472 203.644 195.428 201.361 195.293 199.235H198.926L199.06 203.689H199.24C200.271 200.645 202.783 198.72 205.541 198.72C206.012 198.72 206.348 198.765 206.729 198.855V202.749C206.303 202.659 205.877 202.615 205.317 202.615C202.401 202.615 200.316 204.83 199.755 207.919C199.666 208.479 199.576 209.128 199.576 209.844V221.974H195.472V206.33Z" fill="white"/>
<path d="M219.959 216.983C221.798 218.102 224.489 219.042 227.314 219.042C231.508 219.042 233.952 216.827 233.952 213.626C233.952 210.672 232.248 208.971 227.965 207.337C222.785 205.502 219.578 202.816 219.578 198.362C219.578 193.439 223.682 189.768 229.848 189.768C233.1 189.768 235.454 190.529 236.867 191.312L235.746 194.647C234.714 194.088 232.584 193.148 229.714 193.148C225.386 193.148 223.727 195.744 223.727 197.892C223.727 200.847 225.655 202.301 230.028 204.002C235.387 206.061 238.123 208.658 238.123 213.313C238.123 218.192 234.49 222.422 227 222.422C223.928 222.422 220.587 221.527 218.905 220.408L219.937 216.983H219.959Z" fill="white"/>
<path d="M259.896 221.124C258.82 221.683 256.421 222.444 253.349 222.444C246.464 222.444 242.002 217.789 242.002 210.828C242.002 203.868 246.801 198.743 254.246 198.743C256.69 198.743 258.865 199.347 259.986 199.907L259.044 203.107C258.058 202.548 256.51 202.033 254.246 202.033C249.021 202.033 246.195 205.882 246.195 210.627C246.195 215.887 249.581 219.132 254.111 219.132C256.466 219.132 258.013 218.528 259.201 218.013L259.919 221.124H259.896Z" fill="white"/>
<path d="M269.113 192.834C269.158 194.244 268.126 195.363 266.467 195.363C265.009 195.363 263.978 194.244 263.978 192.834C263.978 191.424 265.054 190.26 266.556 190.26C268.059 190.26 269.09 191.38 269.09 192.834H269.113ZM264.493 221.974V199.235H268.642V221.974H264.493Z" fill="white"/>
<path d="M277.589 211.343C277.679 216.939 281.267 219.244 285.415 219.244C288.375 219.244 290.169 218.729 291.717 218.08L292.434 221.034C290.977 221.683 288.487 222.444 284.855 222.444C277.836 222.444 273.643 217.834 273.643 210.985C273.643 204.137 277.701 198.72 284.339 198.72C291.784 198.72 293.757 205.256 293.757 209.441C293.757 210.291 293.667 210.94 293.623 211.366H277.612L277.589 211.343ZM289.743 208.389C289.788 205.748 288.667 201.675 284.003 201.675C279.809 201.675 277.97 205.524 277.657 208.389H289.766H289.743Z" fill="white"/>
<path d="M298.646 205.39C298.646 203.04 298.601 201.115 298.467 199.235H302.144L302.369 202.995H302.458C303.58 200.824 306.226 198.72 309.993 198.72C313.155 198.72 318.043 200.6 318.043 208.389V221.974H313.895V208.859C313.895 205.189 312.527 202.145 308.625 202.145C305.889 202.145 303.781 204.07 303.064 206.375C302.884 206.89 302.772 207.606 302.772 208.3V221.974H298.624V205.39H298.646Z" fill="white"/>
<path d="M340.804 221.124C339.727 221.683 337.328 222.444 334.256 222.444C327.372 222.444 322.909 217.789 322.909 210.828C322.909 203.868 327.708 198.743 335.153 198.743C337.597 198.743 339.772 199.347 340.893 199.907L339.952 203.107C338.965 202.548 337.418 202.033 335.153 202.033C329.928 202.033 327.103 205.882 327.103 210.627C327.103 215.887 330.489 219.132 335.018 219.132C337.373 219.132 338.92 218.528 340.109 218.013L340.804 221.124Z" fill="white"/>
<path d="M347.441 211.343C347.53 216.939 351.118 219.244 355.267 219.244C358.227 219.244 360.021 218.729 361.568 218.08L362.263 221.034C360.806 221.683 358.317 222.444 354.684 222.444C347.665 222.444 343.472 217.834 343.472 210.985C343.472 204.137 347.53 198.72 354.168 198.72C361.613 198.72 363.586 205.256 363.586 209.441C363.586 210.291 363.496 210.94 363.452 211.366H347.441V211.343ZM359.595 208.389C359.639 205.748 358.518 201.675 353.854 201.675C349.661 201.675 347.822 205.524 347.508 208.389H359.617H359.595Z" fill="white"/>
<path d="M390.854 221.974L390.518 219.11H390.383C389.105 220.9 386.661 222.489 383.41 222.489C378.79 222.489 376.436 219.244 376.436 215.954C376.436 210.448 381.324 207.449 390.137 207.494V207.024C390.137 205.144 389.621 201.764 384.957 201.764C382.826 201.764 380.629 202.413 379.014 203.465L378.073 200.735C379.956 199.504 382.692 198.72 385.562 198.72C392.536 198.72 394.218 203.465 394.218 208.031V216.536C394.218 218.505 394.308 220.43 394.599 221.997H390.832L390.854 221.974ZM390.249 210.359C385.719 210.269 380.606 211.052 380.606 215.484C380.606 218.17 382.4 219.423 384.508 219.423C387.468 219.423 389.352 217.543 390.025 215.618C390.159 215.193 390.271 214.723 390.271 214.298V210.359H390.249Z" fill="white"/>
<path d="M400.699 205.39C400.699 203.04 400.654 201.115 400.52 199.235H404.197L404.421 202.995H404.511C405.632 200.824 408.278 198.72 412.046 198.72C415.207 198.72 420.096 200.6 420.096 208.389V221.974H415.947V208.859C415.947 205.189 414.58 202.145 410.678 202.145C407.942 202.145 405.834 204.07 405.117 206.375C404.937 206.89 404.825 207.606 404.825 208.3V221.974H400.677V205.39H400.699Z" fill="white"/>
<path d="M446.264 188.604V216.088C446.264 218.102 446.309 220.408 446.444 221.952H442.721L442.542 218.013H442.452C441.174 220.542 438.393 222.467 434.693 222.467C429.177 222.467 424.939 217.811 424.939 210.918C424.894 203.353 429.603 198.698 435.164 198.698C438.64 198.698 440.995 200.332 442.049 202.167H442.138V188.582H446.287L446.264 188.604ZM442.116 208.479C442.116 207.964 442.071 207.248 441.936 206.733C441.331 204.092 439.066 201.943 435.949 201.943C431.666 201.943 429.132 205.703 429.132 210.739C429.132 215.35 431.397 219.154 435.859 219.154C438.64 219.154 441.174 217.319 441.936 214.208C442.071 213.649 442.116 213.089 442.116 212.418V208.479Z" fill="white"/>
<path d="M479.25 207.113H466.917V218.528H480.663V221.952H462.813V190.283H479.946V193.707H466.895V203.711H479.228V207.091L479.25 207.113Z" fill="white"/>
<path d="M485.596 205.39C485.596 203.04 485.552 201.115 485.417 199.235H489.095L489.341 202.995H489.431C490.552 200.824 493.198 198.72 496.965 198.72C500.127 198.72 505.016 200.6 505.016 208.389V221.974H500.867V208.859C500.867 205.189 499.499 202.145 495.598 202.145C492.862 202.145 490.754 204.07 490.036 206.375C489.857 206.89 489.767 207.606 489.767 208.3V221.974H485.619V205.39H485.596Z" fill="white"/>
<path d="M531.14 199.235C531.05 200.869 530.961 202.704 530.961 205.48V218.684C530.961 223.899 529.929 227.1 527.709 229.069C525.489 231.128 522.305 231.8 519.412 231.8C516.519 231.8 513.672 231.151 511.833 229.92L512.864 226.764C514.367 227.704 516.721 228.554 519.547 228.554C523.785 228.554 526.902 226.339 526.902 220.609V218.08H526.812C525.534 220.184 523.09 221.885 519.569 221.885C513.918 221.885 509.859 217.095 509.859 210.784C509.859 203.085 514.905 198.698 520.13 198.698C524.076 198.698 526.251 200.757 527.238 202.637H527.328L527.507 199.213H531.14V199.235ZM526.857 208.21C526.857 207.516 526.812 206.89 526.61 206.33C525.848 203.935 523.83 201.966 520.825 201.966C516.878 201.966 514.053 205.301 514.053 210.56C514.053 215.014 516.318 218.729 520.78 218.729C523.314 218.729 525.624 217.14 526.521 214.499C526.745 213.783 526.857 213 526.857 212.283V208.188V208.21Z" fill="white"/>
<path d="M541.926 192.834C541.971 194.244 540.939 195.363 539.28 195.363C537.822 195.363 536.791 194.244 536.791 192.834C536.791 191.424 537.867 190.26 539.37 190.26C540.872 190.26 541.904 191.38 541.904 192.834H541.926ZM537.307 221.974V199.235H541.455V221.974H537.307Z" fill="white"/>
<path d="M548.093 205.39C548.093 203.04 548.049 201.115 547.914 199.235H551.592L551.816 202.995H551.906C553.027 200.824 555.673 198.72 559.44 198.72C562.602 198.72 567.49 200.6 567.49 208.389V221.974H563.342V208.859C563.342 205.189 561.974 202.145 558.072 202.145C555.336 202.145 553.229 204.07 552.511 206.375C552.332 206.89 552.22 207.606 552.22 208.3V221.974H548.071V205.39H548.093Z" fill="white"/>
<path d="M576.303 211.343C576.393 216.939 579.981 219.244 584.129 219.244C587.089 219.244 588.883 218.729 590.43 218.08L591.148 221.034C589.69 221.683 587.201 222.444 583.569 222.444C576.55 222.444 572.356 217.834 572.356 210.985C572.356 204.137 576.415 198.72 583.053 198.72C590.498 198.72 592.471 205.256 592.471 209.441C592.471 210.291 592.381 210.94 592.336 211.366H576.326L576.303 211.343ZM588.457 208.389C588.502 205.748 587.381 201.675 582.716 201.675C578.523 201.675 576.684 205.524 576.37 208.389H588.479H588.457Z" fill="white"/>
<path d="M599.647 211.343C599.737 216.939 603.324 219.244 607.473 219.244C610.433 219.244 612.227 218.729 613.774 218.08L614.492 221.034C613.034 221.683 610.545 222.444 606.912 222.444C599.894 222.444 595.7 217.834 595.7 210.985C595.7 204.137 599.759 198.72 606.397 198.72C613.841 198.72 615.815 205.256 615.815 209.441C615.815 210.291 615.725 210.94 615.68 211.366H599.669L599.647 211.343ZM611.801 208.389C611.846 205.748 610.724 201.675 606.06 201.675C601.867 201.675 600.028 205.524 599.714 208.389H611.823H611.801Z" fill="white"/>
<path d="M620.703 206.33C620.703 203.644 620.658 201.361 620.523 199.235H624.156L624.291 203.689H624.47C625.502 200.645 627.991 198.72 630.771 198.72C631.242 198.72 631.579 198.765 631.96 198.855V202.749C631.534 202.659 631.108 202.615 630.547 202.615C627.632 202.615 625.546 204.83 624.986 207.919C624.896 208.479 624.806 209.128 624.806 209.844V221.974H620.703V206.33Z" fill="white"/>
<path d="M640.661 192.834C640.705 194.244 639.674 195.363 638.014 195.363C636.557 195.363 635.525 194.244 635.525 192.834C635.525 191.424 636.602 190.26 638.127 190.26C639.651 190.26 640.661 191.38 640.661 192.834ZM636.041 221.974V199.235H640.19V221.974H636.041Z" fill="white"/>
<path d="M646.827 205.39C646.827 203.04 646.782 201.115 646.647 199.235H650.325L650.572 202.995H650.661C651.783 200.824 654.429 198.72 658.196 198.72C661.358 198.72 666.246 200.6 666.246 208.389V221.974H662.098V208.859C662.098 205.189 660.73 202.145 656.828 202.145C654.092 202.145 651.984 204.07 651.267 206.375C651.087 206.89 650.998 207.606 650.998 208.3V221.974H646.849V205.39H646.827Z" fill="white"/>
<path d="M692.37 199.235C692.281 200.869 692.191 202.704 692.191 205.48V218.684C692.191 223.899 691.16 227.1 688.94 229.069C686.72 231.128 683.535 231.8 680.643 231.8C677.75 231.8 674.902 231.151 673.063 229.92L674.095 226.764C675.597 227.704 677.952 228.554 680.777 228.554C685.015 228.554 688.132 226.339 688.132 220.609V218.08H688.043C686.764 220.184 684.32 221.885 680.8 221.885C675.149 221.885 671.09 217.095 671.09 210.784C671.09 203.085 676.135 198.698 681.36 198.698C685.307 198.698 687.482 200.757 688.469 202.637H688.558L688.738 199.213H692.37V199.235ZM688.087 208.21C688.087 207.516 688.043 206.89 687.841 206.33C687.078 203.935 685.06 201.966 682.055 201.966C678.109 201.966 675.283 205.301 675.283 210.56C675.283 215.014 677.548 218.729 682.011 218.729C684.544 218.729 686.854 217.14 687.751 214.499C687.975 213.783 688.087 213 688.087 212.283V208.188V208.21Z" fill="white"/>
<path d="M22.1556 141H29.3089V161.009C29.3089 170.028 24.981 173.184 18.0071 173.184C16.3701 173.184 14.195 172.915 12.7822 172.423L13.5895 166.649C14.5762 166.984 15.8543 167.208 17.2671 167.208C20.2719 167.208 22.1556 165.843 22.1556 160.919V141Z" fill="white"/>
<path d="M41.9333 164.545L39.6685 172.669H32.2236L41.9333 141H51.3515L61.1958 172.669H53.4818L51.0376 164.545H41.9558H41.9333ZM49.9836 159.196L48.0103 152.481C47.4497 150.601 46.8891 148.251 46.4182 146.371H46.3285C45.8576 148.251 45.3867 150.646 44.8709 152.481L42.9873 159.196H50.0061H49.9836Z" fill="white"/>
<path d="M87.522 171.774C86.199 172.423 83.239 173.139 79.382 173.139C68.4165 173.139 62.7656 166.335 62.7656 157.293C62.7656 146.483 70.4796 140.463 80.0996 140.463C83.822 140.463 86.6474 141.224 87.9256 141.873L86.4681 147.558C85.0105 146.953 82.9923 146.394 80.4359 146.394C74.7402 146.394 70.3226 149.818 70.3226 156.868C70.3226 163.202 74.0899 167.208 80.5032 167.208C82.6784 167.208 85.0777 166.738 86.4905 166.179L87.5668 171.774H87.522Z" fill="white"/>
<path d="M120.509 156.51C120.509 166.895 114.207 173.184 104.924 173.184C95.6402 173.184 89.9893 166.089 89.9893 157.07C89.9893 147.58 96.0662 140.485 105.44 140.485C114.813 140.485 120.509 147.759 120.509 156.51ZM97.5686 156.935C97.5686 163.135 100.484 167.499 105.283 167.499C110.081 167.499 112.907 162.889 112.907 156.734C112.907 151.049 110.171 146.17 105.238 146.17C100.304 146.17 97.5686 150.78 97.5686 156.935Z" fill="white"/>
<path d="M125.688 141.425C127.572 141.045 131.384 140.776 134.972 140.776C139.345 140.776 142.036 141.201 144.345 142.567C146.565 143.753 148.158 145.901 148.158 148.766C148.158 151.631 146.521 154.227 142.933 155.525V155.615C146.565 156.6 149.234 159.33 149.234 163.403C149.234 166.268 147.911 168.529 145.938 170.118C143.628 171.953 139.771 172.982 133.47 172.982C129.949 172.982 127.303 172.759 125.711 172.512V141.403L125.688 141.425ZM132.797 153.556H135.152C138.919 153.556 140.937 152.011 140.937 149.661C140.937 147.311 139.098 145.991 135.847 145.991C134.299 145.991 133.402 146.081 132.797 146.17V153.556ZM132.797 167.611C133.492 167.701 134.344 167.701 135.578 167.701C138.829 167.701 141.699 166.47 141.699 163.135C141.699 159.8 138.829 158.659 135.241 158.659H132.797V167.589V167.611Z" fill="white"/>
<path d="M154.234 165.283C156.162 166.268 159.122 167.253 162.195 167.253C165.491 167.253 167.24 165.888 167.24 163.829C167.24 161.77 165.738 160.718 161.925 159.375C156.656 157.54 153.225 154.63 153.225 150.02C153.225 144.603 157.755 140.485 165.222 140.485C168.81 140.485 171.433 141.246 173.317 142.074L171.725 147.849C170.447 147.244 168.204 146.349 165.087 146.349C161.97 146.349 160.468 147.759 160.468 149.415C160.468 151.43 162.262 152.325 166.343 153.869C171.949 155.928 174.573 158.86 174.573 163.314C174.573 168.618 170.469 173.139 161.768 173.139C158.136 173.139 154.57 172.199 152.776 171.214L154.234 165.283Z" fill="white"/>
<path d="M190.113 165.283C192.041 166.268 195.001 167.253 198.073 167.253C201.37 167.253 203.119 165.888 203.119 163.829C203.119 161.77 201.616 160.718 197.804 159.375C192.535 157.54 189.104 154.63 189.104 150.02C189.104 144.603 193.633 140.485 201.101 140.485C204.689 140.485 207.312 141.246 209.196 142.074L207.604 147.849C206.326 147.244 204.083 146.349 200.966 146.349C197.849 146.349 196.347 147.759 196.347 149.415C196.347 151.43 198.141 152.325 202.222 153.869C207.828 155.928 210.452 158.86 210.452 163.314C210.452 168.618 206.348 173.139 197.647 173.139C194.015 173.139 190.449 172.199 188.655 171.214L190.113 165.283Z" fill="white"/>
<path d="M238.662 171.774C237.339 172.423 234.379 173.139 230.522 173.139C219.556 173.139 213.905 166.335 213.905 157.293C213.905 146.483 221.619 140.463 231.239 140.463C234.962 140.463 237.787 141.224 239.065 141.873L237.608 147.558C236.15 146.953 234.132 146.394 231.576 146.394C225.88 146.394 221.462 149.818 221.462 156.868C221.462 163.202 225.23 167.208 231.643 167.208C233.818 167.208 236.217 166.738 237.63 166.179L238.706 171.774H238.662Z" fill="white"/>
<path d="M250.614 141V153.175H262.432V141H269.585V172.669H262.432V159.42H250.614V172.669H243.416V141H250.614Z" fill="white"/>
<path d="M305.306 156.51C305.306 166.895 299.005 173.184 289.722 173.184C280.438 173.184 274.787 166.089 274.787 157.07C274.787 147.58 280.864 140.485 290.237 140.485C299.611 140.485 305.306 147.759 305.306 156.51ZM282.389 156.935C282.389 163.135 285.304 167.499 290.103 167.499C294.902 167.499 297.727 162.889 297.727 156.734C297.727 151.049 294.991 146.17 290.058 146.17C285.125 146.17 282.389 150.78 282.389 156.935Z" fill="white"/>
<path d="M339.414 156.51C339.414 166.895 333.113 173.184 323.829 173.184C314.545 173.184 308.895 166.089 308.895 157.07C308.895 147.58 314.971 140.485 324.345 140.485C333.718 140.485 339.414 147.759 339.414 156.51ZM316.474 156.935C316.474 163.135 319.389 167.499 324.188 167.499C328.987 167.499 331.812 162.889 331.812 156.734C331.812 151.049 329.076 146.17 324.143 146.17C319.21 146.17 316.474 150.78 316.474 156.935Z" fill="white"/>
<path d="M344.594 141H351.792V166.649H364.417V172.669H344.594V141Z" fill="white"/>
<path d="M406.261 156.51C406.261 166.895 399.959 173.184 390.676 173.184C381.392 173.184 375.741 166.089 375.741 157.07C375.741 147.58 381.818 140.485 391.192 140.485C400.565 140.485 406.261 147.759 406.261 156.51ZM383.343 156.935C383.343 163.135 386.258 167.499 391.057 167.499C395.856 167.499 398.681 162.889 398.681 156.734C398.681 151.049 395.945 146.17 391.012 146.17C386.079 146.17 383.343 150.78 383.343 156.935Z" fill="white"/>
<path d="M411.44 141H430.837V146.864H418.639V154.093H430.03V159.912H418.639V172.647H411.44V140.978V141Z" fill="white"/>
<path d="M465.595 159.285H453.912V166.805H466.963V172.669H446.714V141H466.29V146.864H453.912V153.444H465.595V159.263V159.285Z" fill="white"/>
<path d="M472.502 172.669V141H480.889L487.481 152.616C489.365 155.95 491.249 159.89 492.661 163.47H492.796C492.325 159.285 492.19 155.01 492.19 150.266V141H498.783V172.669H491.249L484.476 160.449C482.593 157.07 480.53 152.974 478.96 149.259L478.826 149.303C479.005 153.489 479.117 157.942 479.117 163.112V172.647H472.524L472.502 172.669Z" fill="white"/>
<path d="M531.769 171.214C529.549 171.975 525.355 173.005 521.185 173.005C515.399 173.005 511.206 171.55 508.291 168.73C505.375 166 503.761 161.859 503.828 157.226C503.873 146.707 511.542 140.687 521.947 140.687C526.051 140.687 529.19 141.492 530.76 142.231L529.257 147.96C527.508 147.2 525.355 146.595 521.857 146.595C515.87 146.595 511.363 149.975 511.363 156.846C511.363 163.717 515.466 167.23 521.342 167.23C522.979 167.23 524.302 167.051 524.862 166.76V160.136H519.974V154.54H531.791V171.214H531.769Z" fill="white"/>
<path d="M545.201 141V172.669H538.003V141H545.201Z" fill="white"/>
<path d="M551.816 172.669V141H560.203L566.796 152.616C568.679 155.95 570.563 159.89 571.976 163.47H572.11C571.639 159.285 571.505 155.01 571.505 150.266V141H578.098V172.669H570.563L563.791 160.449C561.907 157.07 559.844 152.974 558.275 149.259L558.14 149.303C558.319 153.489 558.432 157.942 558.432 163.112V172.647H551.839L551.816 172.669Z" fill="white"/>
<path d="M603.662 159.285H591.978V166.805H605.029V172.669H584.78V141H604.357V146.864H591.978V153.444H603.662V159.263V159.285Z" fill="white"/>
<path d="M629.449 159.285H617.766V166.805H630.816V172.669H610.567V141H630.144V146.864H617.766V153.444H629.449V159.263V159.285Z" fill="white"/>
<path d="M636.355 141.425C638.665 141.045 642.096 140.776 645.908 140.776C650.617 140.776 653.914 141.47 656.178 143.261C658.062 144.76 659.094 146.976 659.094 149.885C659.094 153.936 656.223 156.689 653.488 157.696V157.831C655.708 158.726 656.918 160.83 657.726 163.761C658.712 167.342 659.699 171.461 660.327 172.691H652.972C652.456 171.796 651.694 169.222 650.752 165.306C649.9 161.367 648.532 160.27 645.617 160.225H643.442V172.669H636.333V141.425H636.355ZM643.464 155.055H646.289C649.877 155.055 651.985 153.265 651.985 150.49C651.985 147.58 650.012 146.125 646.715 146.081C644.966 146.081 643.98 146.215 643.464 146.304V155.055Z" fill="white"/>
<path d="M672.01 141V172.669H664.812V141H672.01Z" fill="white"/>
<path d="M678.625 172.669V141H687.012L693.604 152.616C695.488 155.95 697.372 159.89 698.784 163.47H698.919C698.448 159.285 698.313 155.01 698.313 150.266V141H704.906V172.669H697.372L690.6 160.449C688.716 157.07 686.653 152.974 685.083 149.259L684.949 149.303C685.128 153.489 685.24 157.942 685.24 163.112V172.647H678.647L678.625 172.669Z" fill="white"/>
<path d="M737.893 171.214C735.673 171.975 731.479 173.005 727.309 173.005C721.523 173.005 717.33 171.55 714.415 168.73C711.499 166 709.885 161.859 709.952 157.226C709.997 146.707 717.666 140.687 728.071 140.687C732.175 140.687 735.314 141.492 736.884 142.231L735.381 147.96C733.632 147.2 731.48 146.595 727.981 146.595C721.994 146.595 717.487 149.975 717.487 156.846C717.487 163.717 721.59 167.23 727.466 167.23C729.103 167.23 730.426 167.051 730.986 166.76V160.136H726.098V154.54H737.915V171.214H737.893Z" fill="white"/>
</svg>
